<svg version="1.0" xmlns="http://www.w3.org/2000/svg"
 width="30pt" height="27pt" viewBox="0 0 300.000000 270.000000"
 preserveAspectRatio="xMidYMid meet">

<g transform="translate(0.000000,270.000000) scale(0.100000,-0.100000)"
fill="#000000" stroke="none">
<path d="M1885 2612 l-49 -37 -161 2 c-88 0 -216 3 -285 4 -108 3 -135 1 -200
-20 -107 -33 -185 -77 -236 -135 -89 -98 -124 -204 -124 -377 l0 -107 -53 -6
c-63 -8 -151 -47 -165 -73 -10 -19 -16 -62 -14 -100 3 -34 50 -82 92 -93 31
-8 55 -7 111 7 l72 17 63 -34 c35 -19 64 -37 64 -41 0 -15 -72 -98 -90 -104
-13 -4 -23 -18 -27 -36 -7 -38 -22 -37 -113 7 -57 27 -93 54 -155 117 -71 72
-89 98 -148 215 -77 155 -74 157 -85 -62 l-7 -148 -70 57 c-38 31 -71 52 -73
47 -6 -19 28 -180 48 -227 22 -50 21 -51 -20 -30 -17 9 -30 11 -30 6 0 -17 68
-234 88 -281 18 -43 18 -46 0 -104 -60 -192 -32 -460 63 -607 40 -63 135 -150
194 -179 58 -28 151 -31 212 -5 l43 17 62 -47 c175 -132 358 -179 688 -179
229 0 336 14 500 66 128 40 208 86 297 172 83 78 132 145 185 251 80 159 97
251 108 570 11 332 26 390 129 490 28 27 51 52 51 56 0 3 -28 19 -62 34 -45
19 -86 29 -144 32 -149 10 -240 -25 -451 -176 -157 -112 -209 -141 -253 -141
-45 0 -66 14 -95 64 -32 55 -32 79 5 124 134 168 159 489 53 685 l-26 47 21
23 c47 49 63 138 44 239 l-7 37 -50 -37z m-360 -97 c117 -17 242 -19 304 -4
24 5 46 8 48 5 17 -16 -72 -116 -103 -116 -10 0 -1 -19 26 -54 119 -157 127
-425 20 -636 -12 -25 -60 -83 -107 -128 -79 -79 -82 -83 -51 -77 18 4 46 14
61 22 34 17 43 12 51 -29 10 -48 50 -103 89 -121 82 -39 160 -11 352 127 66
47 157 105 203 128 75 38 92 42 172 46 119 6 128 2 96 -41 -47 -61 -78 -145
-85 -226 l-6 -76 -24 38 c-13 21 -25 37 -26 35 -2 -2 3 -48 12 -103 8 -55 16
-165 16 -245 l2 -145 -43 -80 c-93 -171 -240 -329 -389 -418 -299 -179 -714
-196 -1170 -46 l-92 30 44 60 c40 54 74 127 91 194 3 14 9 24 13 22 160 -86
288 -118 492 -124 260 -9 381 30 516 162 99 98 128 159 127 275 0 67 -5 96
-22 135 -51 111 -140 166 -282 172 -90 5 -97 3 -344 -71 -145 -44 -273 -66
-387 -66 -135 0 -146 4 -176 65 l-26 53 28 24 c26 23 31 24 64 12 129 -46 309
19 446 161 33 34 72 66 85 70 92 28 130 72 130 147 -1 89 -58 158 -132 158
-23 0 -24 2 -20 70 8 135 -46 287 -123 346 -20 15 -38 25 -40 22 -2 -2 7 -21
20 -41 33 -48 32 -56 -12 -50 -57 7 -122 -30 -153 -87 -19 -36 -25 -63 -28
-138 -3 -67 -7 -90 -16 -83 -6 5 -27 13 -46 18 l-35 9 -6 90 c-6 95 -22 139
-63 172 l-25 19 20 33 c27 44 18 48 -26 9 -38 -33 -73 -93 -86 -144 -7 -28 -7
-28 -8 11 -3 109 45 229 117 295 53 49 144 92 238 113 89 19 146 19 269 1z
m-105 -383 c44 -43 60 -92 60 -177 0 -109 -8 -133 -48 -146 -68 -22 -194 11
-206 55 -11 40 -6 143 9 193 10 34 27 61 50 82 50 43 87 42 135 -7z m-386 6
c22 -30 20 -48 -4 -48 -50 0 -72 -106 -33 -158 l22 -30 -21 -5 c-40 -11 -55 8
-61 75 -3 35 -2 82 2 106 15 75 63 105 95 60z m-525 -520 c50 -67 104 -118
169 -159 l46 -29 -51 0 c-29 0 -63 -4 -77 -9 -22 -9 -29 -5 -61 31 -47 52 -71
107 -80 183 -8 66 -9 67 54 -17z m-22 -220 c22 -23 22 -24 3 -36 -17 -10 -23
-6 -53 31 -19 23 -47 62 -62 87 l-28 45 59 -52 c32 -28 69 -62 81 -75z m427
-28 c19 -6 18 -8 -8 -25 -27 -18 -27 -18 -59 13 l-31 31 39 -6 c22 -3 49 -9
59 -13z m-507 -54 l22 -11 -20 -33 c-12 -17 -25 -30 -29 -27 -4 3 -15 26 -24
51 -15 45 -15 45 7 38 12 -3 32 -12 44 -18z m333 -96 l40 -20 -25 -50 c-23
-45 -28 -49 -45 -40 -17 9 -20 21 -20 70 0 33 2 60 5 60 3 0 24 -9 45 -20z
m1173 -4 c71 -21 133 -72 163 -133 22 -45 26 -63 22 -118 -5 -81 -24 -103
-133 -155 -118 -57 -209 -74 -400 -73 -149 0 -345 23 -435 50 -46 14 -145 73
-190 114 -38 34 -41 40 -20 35 52 -12 159 -18 196 -12 l38 8 -58 23 c-32 13
-76 36 -98 51 -37 26 -122 114 -116 120 2 1 30 -4 63 -12 72 -16 238 -18 338
-3 92 14 207 42 322 79 50 16 99 31 110 33 44 10 154 6 198 -7z m-1346 -125
c-13 -14 -32 -39 -42 -54 l-18 -28 -20 32 -21 32 24 44 c13 24 39 58 59 75
l36 32 3 -53 c3 -45 -1 -58 -21 -80z m299 -38 c9 -24 14 -46 11 -49 -3 -4 -22
4 -41 16 -20 12 -36 18 -36 14 0 -4 14 -31 30 -61 30 -53 30 -53 8 -53 -19 0
-26 10 -44 64 -21 66 -21 70 14 125 14 23 15 24 28 6 8 -10 21 -38 30 -62z
m-374 -120 c-3 -18 -11 -23 -34 -23 l-30 0 7 48 c4 26 9 51 12 55 9 16 50 -56
45 -80z m12 -173 c11 -43 28 -74 56 -104 36 -39 40 -49 40 -95 0 -28 -4 -51
-10 -51 -21 0 -93 84 -115 133 -19 45 -45 139 -45 167 0 6 13 10 28 10 27 0
30 -5 46 -60z m390 28 c-18 -101 -54 -187 -93 -222 -26 -23 -27 -22 -42 35
-11 42 -10 50 14 100 15 30 30 69 33 87 6 30 9 32 50 32 l44 0 -6 -32z"/>
<path d="M1352 2065 c-41 -52 -37 -169 7 -209 67 -61 124 121 64 203 -27 35
-47 37 -71 6z"/>
</g>
</svg>